<?xml version="1.0" encoding="UTF-8" standalone="no"?>
<!-- Created with Inkscape (http://www.inkscape.org/) -->

<svg
   width="105"
   height="105"
   viewBox="0 0 27.781248 27.781248"
   version="1.1"
   id="svg1"
   inkscape:version="1.3.2 (091e20e, 2023-11-25, custom)"
   sodipodi:docname="BDR.svg"
   xml:space="preserve"
   xmlns:inkscape="http://www.inkscape.org/namespaces/inkscape"
   xmlns:sodipodi="http://sodipodi.sourceforge.net/DTD/sodipodi-0.dtd"
   xmlns="http://www.w3.org/2000/svg"
   xmlns:svg="http://www.w3.org/2000/svg"><sodipodi:namedview
     id="namedview1"
     pagecolor="#505050"
     bordercolor="#ffffff"
     borderopacity="1"
     inkscape:showpageshadow="0"
     inkscape:pageopacity="0"
     inkscape:pagecheckerboard="1"
     inkscape:deskcolor="#505050"
     inkscape:document-units="mm"
     inkscape:zoom="0.98394783"
     inkscape:cx="143.30028"
     inkscape:cy="170.2326"
     inkscape:window-width="1920"
     inkscape:window-height="991"
     inkscape:window-x="-9"
     inkscape:window-y="-9"
     inkscape:window-maximized="1"
     inkscape:current-layer="layer1" /><defs
     id="defs1" /><g
     inkscape:label="圖層 1"
     inkscape:groupmode="layer"
     id="layer1"><path
       id="path12"
       style="fill:#24b6eb;stroke:#080c16;stroke-width:0.264583;stroke-dasharray:none;fill-opacity:1"
       inkscape:label="path22"
       inkscape:transform-center-x="-13.964955"
       inkscape:transform-center-y="-16.075203"
       d="m 13.570659,1.3170121 c 0,0 -1.147702,3.9359331 -2.074809,4.3862951 -0.833452,0.40487 -5.07721,-1.970422 -5.07721,-1.970422 0,0 2.584231,4.501526 2.205034,5.028117 -0.456337,0.633715 -6.542753,1.050065 -6.542753,1.050065 0,0 3.786005,2.1798638 5.071544,3.0050108 0.730901,0.249157 1.428834,0.607173 1.428834,0.607173 l 2.606026,3.036505 -1.146683,-3.82147 c 0.861642,-1.909571 2.81859,-5.6363265 3.486092,-6.8724498 0.722807,1.3067979 2.534045,4.7577298 3.507279,6.9055218 l -0.936377,4.00079 2.365747,-2.938322 c 0.492263,-0.230808 0.99213,-0.454041 1.495516,-0.673861 0.559221,-0.989623 5.39812,-3.6499068 5.39812,-3.6499068 0,0 -6.026039,0.018448 -6.437333,-0.625285 -0.300338,-0.470075 1.88464,-5.299418 1.88464,-5.299418 0,0 -4.667811,2.476679 -5.18108,2.201416 -0.77711,-0.416764 -2.052587,-4.3697591 -2.052587,-4.3697591 z"
       sodipodi:nodetypes="cccscccccccccccsccc" /><path
       id="path13"
       style="fill:#23b6eb;fill-opacity:1;stroke:#080c16;stroke-width:0.264583;stroke-dasharray:none;stroke-opacity:1"
       d="m 13.582755,7.3146192 -2.855361,5.3646548 1.098302,4.067552 1.536443,2.016742 c -0.230269,-2.230811 -0.119542,-3.469379 0.296862,-5.528313 0.390806,2.039502 0.503275,3.200282 0.323393,5.501205 l 1.381267,-1.783717 0.983162,-4.246341 z"
       sodipodi:nodetypes="ccccccccc" /><path
       id="path14"
       style="fill:#23b6eb;fill-opacity:1;stroke:#080c16;stroke-width:0.265;stroke-dasharray:none;stroke-opacity:1"
       d="m 25.494379,11.193902 c -2.190241,1.010135 -4.514451,1.896293 -6.698299,2.920235 -1.610755,1.945064 -3.126741,3.969596 -4.764567,5.892147 0.344891,0.389522 0.751847,0.852346 1.156526,1.267116 1.074228,-1.092832 2.960915,-3.771138 5.212077,-4.773362 -0.896043,2.262501 -3.050736,3.685881 -4.666405,5.358295 0.440589,0.489338 0.665448,0.77838 0.959135,1.105377 2.032832,-1.737613 4.13258,-3.396745 6.20789,-5.083411 0.920899,-2.195161 1.706651,-4.477181 2.59364,-6.686413 z M 10.859452,23.723577 c 0,0 -0.617052,0.7627 -0.998744,1.180082 0.139028,0.21564 0.584555,0.632245 0.788066,0.774113 0.365682,-0.27665 1.008436,-1.045118 1.107683,-1.156713 -0.220218,-0.211507 -0.897005,-0.797482 -0.897005,-0.797482 z m 1.685812,1.310161 c -0.476236,0.514998 -0.667879,0.747637 -1.177154,1.271386 0.22146,0.276832 0.529335,0.523852 0.703316,0.659913 0.401067,-0.323321 0.708421,-0.639681 1.373707,-1.215647 -0.364719,-0.2854 -0.596205,-0.484184 -0.899869,-0.715652 z"
       sodipodi:nodetypes="cccccccccccccccccccc" /><path
       style="fill:#23b6eb;fill-opacity:1;stroke:#080c16;stroke-width:0.264583;stroke-dasharray:none;stroke-opacity:1"
       d="m 16.75995,25.18189 c -3.277553,-2.996774 -7.472687,-7.474075 -9.824081,-8.801766 1.196775,2.456327 7.39945,8.025223 9.264912,9.516191 3.96e-4,0.02258 -0.762485,0.797667 -0.789588,0.77273 -1.027052,-0.944949 -7.034474,-5.582711 -11.092211,-8.713593 0,0 -1.876778,-4.461534 -2.885198,-6.620284 2.241719,0.893232 6.814806,2.421016 6.814806,2.421016 2.96373,3.590381 5.818249,7.033089 9.239181,10.873956 -0.172331,0.129094 -0.520841,0.365716 -0.727821,0.55175 z"
       id="path15"
       sodipodi:nodetypes="ccsscsccc" /><path
       style="fill:#23b5eb;fill-opacity:1;stroke:#080c16;stroke-width:1.00157;stroke-dasharray:none"
       d=""
       id="path21"
       transform="scale(0.26458333)" /></g></svg>
