<?xml version="1.0" encoding="UTF-8" standalone="no"?>
<!-- Created with Inkscape (http://www.inkscape.org/) -->

<svg
   version="1.1"
   id="svg1"
   width="180"
   height="180"
   viewBox="0 0 180 180"
   sodipodi:docname="icon-cameraSVG.svg"
   inkscape:version="1.3 (0e150ed6c4, 2023-07-21)"
   xml:space="preserve"
   xmlns:inkscape="http://www.inkscape.org/namespaces/inkscape"
   xmlns:sodipodi="http://sodipodi.sourceforge.net/DTD/sodipodi-0.dtd"
   xmlns="http://www.w3.org/2000/svg"
   xmlns:svg="http://www.w3.org/2000/svg"><defs
     id="defs1" /><sodipodi:namedview
     id="namedview1"
     pagecolor="#505050"
     bordercolor="#eeeeee"
     borderopacity="1"
     inkscape:showpageshadow="0"
     inkscape:pageopacity="0"
     inkscape:pagecheckerboard="0"
     inkscape:deskcolor="#505050"
     inkscape:zoom="2.8761697"
     inkscape:cx="134.03243"
     inkscape:cy="82.227416"
     inkscape:window-width="1920"
     inkscape:window-height="974"
     inkscape:window-x="-11"
     inkscape:window-y="-11"
     inkscape:window-maximized="1"
     inkscape:current-layer="g1" /><g
     inkscape:groupmode="layer"
     inkscape:label="Image"
     id="g1"><path
       style="fill:#ffffff"
       d="m 61.412206,63.330419 c -3.559574,-3.626905 -4.520535,-5.698259 -3.769808,-8.125829 0.290425,-0.939128 1.071533,-3.781507 1.735794,-6.316399 l 1.207748,-4.608894 4.857081,-1.303937 c 2.671394,-0.717166 5.013488,-1.14753 5.204652,-0.956366 0.477994,0.477995 -0.710001,6.296121 -2.752074,13.478092 -0.938299,3.3 -1.884863,7.125 -2.103474,8.5 -0.218611,1.375 -0.594252,2.5 -0.834757,2.5 -0.240505,0 -1.835828,-1.425 -3.545162,-3.166667 z M 35.903543,59.153947 C 16.176228,53.697652 11.867395,52.345736 10.784215,51.272651 9.7367451,50.234935 9.8478651,49.453476 12.515275,39.098912 c 1.56771,-6.085661 3.064111,-11.410662 3.325337,-11.833333 0.261225,-0.422672 1.132249,-0.768828 1.935609,-0.769236 1.286139,-6.53e-4 14.318205,3.442097 28.127321,7.430543 8.44714,2.439762 8.932788,2.641525 9.323829,3.873585 0.213143,0.671555 -0.261569,3.57802 -1.054915,6.458811 -0.793346,2.880792 -1.58336,5.987803 -1.755587,6.90447 -0.172228,0.916667 -0.895886,3.691667 -1.60813,6.166667 -1.257991,4.371431 -1.356087,4.498643 -3.433427,4.452498 -1.17614,-0.02613 -6.338436,-1.209163 -11.471769,-2.62897 z M 46.070209,31.055564 c -2.057696,-0.751535 -2.213235,-1.477927 -0.833333,-3.891813 1.291564,-2.259355 1.254122,-7.340509 -0.068,-9.228109 -1.462853,-2.08851 -0.641367,-2.61115 1.92765,-1.22638 4.579203,2.4683 6.574122,8.267073 4.571336,13.287823 -0.790994,1.982931 -2.29028,2.266436 -5.597653,1.058479 z M 29.736876,26.333283 20.236877,23.583062 v -2.72157 c 0,-7.20431 8.994722,-12.4805598 16.456599,-9.65333 5.847151,2.21542 9.027554,9.77967 6.577418,15.643669 -1.231965,2.948507 -1.607602,2.934115 -13.534018,-0.518548 z"
       id="path1" /></g></svg>
